# xmcd
#
# Track frame offsets:
#	150
#	19450
#	40302
#	62894
#	91786
#	116442
#	142269
#	158372
#	177611
#	195528
#	221529
#	244244
#	274634
#
# Disc length: 3708 seconds
#
# Revision: 0
# Processed by: cddbd v1.4PL0 Copyright (c) Steve Scherf et al.
# Submitted via: dBpowerAMP V4.0
#
DISCID=bb0e7a0d
DTITLE=Several - Song Discovery-Worshipleaders
DYEAR=2002
DGENRE=Gospel
TTITLE0=Shout to the North-Delirious
TTITLE1=Water -Vineyard
TTITLE2=Moving with the Lamb- SA-Vineyard
TTITLE3=Come heal this land-Robin Mark
TTITLE4=Lift your voice-Brooklyn Tab. Choir
TTITLE5=All the riches of You-Christ for the Nations
TTITLE6=Behold the Lamb of God-Marc Wymore
TTITLE7=May the Wordt of my mouth-Tim Hughes
TTITLE8=I Will- Justin Fox Band
TTITLE9=Worthy is the Lamb-Hillsong Australia
TTITLE10=Let God Arise-Worship Extreme
TTITLE11=Complete-Parachute Band
TTITLE12=DATA
EXTD=
EXTT0=
EXTT1=
EXTT2=
EXTT3=
EXTT4=
EXTT5=
EXTT6=
EXTT7=
EXTT8=
EXTT9=
EXTT10=
EXTT11=
EXTT12=
PLAYORDER=
